<?xml version="1.0" encoding="iso-8859-1"?><!-- Generator: Adobe Illustrator 19.2.1, SVG Export Plug-In . SVG Version: 6.00 Build 0)  --><svg xmlns="http://www.w3.org/2000/svg" xmlns:xlink="http://www.w3.org/1999/xlink" viewBox="0 0 50 50" width="50px" height="50px"><path d="M5.304,3.015C5.11,3.361,5,3.773,5,4.233v41.768c0,0.335,0.074,0.638,0.193,0.909L27.35,24.896L5.304,3.015z"/><path d="M28.769,23.486l5.96-5.922L8.467,2.401C8.029,2.148,7.57,2.022,7.132,2.01L28.769,23.486z"/><path d="M44.312,23.099c-0.661-0.357-5.574-3.207-7.792-4.496l-6.333,6.292l6.355,6.308l7.733-4.464c1.102-0.637,1.255-1.449,1.249-1.877C45.514,24.15,45.071,23.507,44.312,23.099z"/><path d="M28.768,26.305L6.948,47.984c0.364-0.019,0.742-0.123,1.111-0.337C8.915,47.152,26.223,37.16,26.223,37.16l8.525-4.921L28.768,26.305z"/></svg>